<?xml version="1.0" encoding="utf-8"?>
<!-- Generator: Adobe Illustrator 25.0.1, SVG Export Plug-In . SVG Version: 6.00 Build 0)  -->
<svg version="1.1" id="Layer_1" xmlns="http://www.w3.org/2000/svg" xmlns:xlink="http://www.w3.org/1999/xlink" x="0px" y="0px"
	 viewBox="0 0 1921.3 423.7" style="enable-background:new 0 0 1921.3 423.7;" xml:space="preserve">
<style type="text/css">
	.st0{fill:#FF0000;}
	.st1{fill:#282828;}
</style>
<path class="st0" d="M268.5,195.4l-34.2-0.5c-11.1-0.2-22.2,0.2-33-1.5c-16.5-2.5-17.7-14.9-18.9-25.3c-1.7-14.6-1-29.5,2.1-43.9
	c1.8-8.1,8.9-13,19.8-13.5c36.9-1.9,74-1.7,110.9-0.8c3.9,0.1,7.8,0.5,11.6,1c18.9,2.5,19.4,16.5,20.6,28.3
	c1.2,11.9,0.7,23.9-1.6,35.8c-1.9,9.8-5.5,18-20.6,18.8c-19,1-37.5,1.9-56.6,1.6C268.6,195.4,268.5,195.4,268.5,195.4z M248.4,170.6
	c14.3-6.1,28.3-12.2,42.6-18.3c-14.3-6.1-28.3-12.2-42.6-18.3V170.6z"/>
<g>
	<path class="st1" d="M818.5,193.8c-1.2,2.3-2.2,4.2-3.2,6.1h-23.7v-90.6h27.7v33.4c1.4-0.9,2.2-1.3,2.8-1.7
		c4.7-3.2,10.8-5.3,18.7-6.1c12.6-1.2,23.3,1.5,27.1,7.5c2.5,3.7,4,7.7,4.2,11.6c0.4,10,0.1,20-0.6,30c-0.3,3.1-2.2,6.2-4.5,9.1
		c-7.8,9.5-33.1,10.9-45.7,2.7C820.5,195.3,819.8,194.7,818.5,193.8L818.5,193.8z M819.8,168.9v16.6c0,2.7,2.9,4.3,8.3,5
		c5.3,0.6,9.7-0.4,11.9-2.9c0.9-1,1.8-2.1,1.9-3.2c0.5-10.1,1-20.3,1.2-30.4c0-1.9-0.9-3.8-2.1-5.7c-2.2-3.3-8.1-4.3-14-2.4
		c-4.4,1.5-7.1,3.6-7.1,6.4V168.9z M744.6,136.2h29V200H751c-0.8-2.4-1.6-4.9-2.6-7.8c-1.5,1.1-2.5,1.8-3.4,2.6
		c-7.5,5.4-18.2,7.2-30.7,6.2c-10.7-0.9-17.2-5-18.6-11.7c-0.4-2-0.6-4-0.6-6c-0.1-14.9,0-29.9,0-44.8v-2.2h29.3v2.6
		c0,14.4-0.1,28.8,0.1,43.3c0,2.1,0.4,4.2,1.2,6.2c0.8,2.1,3.9,2.9,8,2.7c6.7-0.3,11.3-2.7,11.3-6V139
		C744.6,138.1,744.6,137.2,744.6,136.2L744.6,136.2z M545.2,136.1h29.1v2.7c0,14.4-0.1,28.7,0.1,43c0,2.1,0.4,4.2,1.3,6.2
		c1.1,2.4,3.9,3.1,8.7,2.8c6.6-0.5,10.6-2.7,10.6-6v-45.7v-2.9h29V200h-22.5c-0.8-2.4-1.6-4.8-2.7-7.9c-1.4,1.1-2.3,1.7-3.1,2.3
		c-7.5,5.5-18.1,7.5-30.9,6.5c-10.3-0.8-16.6-4.5-18.6-10.7c-0.5-1.9-0.9-3.8-0.9-5.8c-0.1-15.5-0.1-31.1-0.1-46.6L545.2,136.1z
		 M530.3,170.2c-0.1,2.1-0.4,4.3-0.6,6.4c-1.1,6.4-1.6,15.6-12.1,20.3c-6.7,3-15.2,4-23.9,4.2c-3.9,0-7.9,0-11.8-0.2
		c-18.5-1.4-27-5.4-30.1-15.5c-3.5-11.6-3.8-23.4,0.4-35c4.3-12,19.3-16.3,42.5-15.5c21.7,0.8,31.4,7.8,33.9,17.8
		C529.9,158.5,530.6,164.4,530.3,170.2L530.3,170.2z M500.8,168c0-4.1,0.2-8.2-0.1-12.3c-0.2-2.4-0.8-4.8-1.8-7.1
		c-1.2-2.7-4.6-4-9-3.9c-4.2,0-7.2,1.3-8.8,3.8c-0.5,0.9-1.1,1.9-1.1,2.8c0,6.4-0.1,12.8-0.2,19.2c-0.1,6-1.6,12.2,2.2,17.9
		c1.2,1.7,4.1,2.7,8,2.7c3.8,0,6.3-0.9,7.7-2.6c1.1-1.3,2.1-2.7,2.1-4.1C500.2,179,500.8,173.5,500.8,168z M409.2,156
		c2.6-6.2,5-12.2,7.6-18.3c3.3-7.7,7-15.4,10.3-23.2c0.8-1.9,2.4-2.3,6-2.3c7.8,0.1,15.7,0,23.9,0c-2.7,4.9-5.3,9.6-8,14.2
		c-8.2,14.5-16.5,29-24.6,43.5c-0.6,1.1-0.9,2.3-0.9,3.5c-0.1,7.9,0,15.8,0,23.8v2.6h-28.3c-0.1-0.7-0.3-1.4-0.3-2.1
		c0-4.5-0.7-9,0.1-13.4c2.1-10.7-4.8-20.5-10.3-30.4c-7.3-13.1-14.7-26.3-22.1-39.5c-0.4-0.6-0.5-1.3-0.9-2.1h28.9
		C396.7,126.9,402.8,141.4,409.2,156L409.2,156z M962.6,172.6h-48.8c0.5,4.8,0.7,9.5,1.7,14c0.7,3.2,4.2,4.5,9.8,4.6
		c5.8,0,9.2-1.4,10.5-4.5c0.4-1,0.7-2.1,0.9-3.1c0.2-0.9,0.3-1.9,0.4-3.3c8.2,0.2,16.3,0.5,24.2,0.6c4.6,6.8-3.7,15.5-17.7,18.2
		c-11,2.1-22.4,2.1-33.6,0.5c-8.3-1.2-14.6-3.8-17.3-7.9c-2.6-3.8-5.1-7.7-5.6-11.7c-1.4-9.7-2-19.5,1-29.3c0.5-1.6,1.4-3.2,2.5-4.8
		c4-6.5,12.9-10.5,26.5-11.2c7.4-0.4,15.1-0.2,22.4,0.4c11.9,1,18.2,5.3,20.9,10.8c1.3,2.6,2.2,5.3,2.4,7.9
		C962.9,160.2,962.6,166.2,962.6,172.6L962.6,172.6z M934.9,164.3c0-4.8,0.1-9.3-0.1-13.9c0-1.1-0.8-2.2-1.6-3.2
		c-1.6-2-5.1-2.6-9.2-2.6c-4.1,0-6.7,1-7.7,2.9c-3.1,5.5-2.1,11.2-2,16.8C921.7,164.3,928.4,164.3,934.9,164.3L934.9,164.3z"/>
	<path class="st1" d="M646.3,124h-28.7v-11.5h85.6v11.4h-28.5v76h-28.4L646.3,124z"/>
</g>
</svg>
